<svg width="202" height="30" viewBox="0 0 202 30" fill="none" xmlns="http://www.w3.org/2000/svg">
<path d="M201.804 14.3707V26.2525C201.376 26.6934 200.741 27.2077 199.9 27.7956C199.071 28.3834 198.003 28.8978 196.693 29.3387C195.397 29.7796 193.841 30 192.024 30C190.381 30 188.891 29.7462 187.555 29.2385C186.232 28.7308 185.097 27.9626 184.148 26.9339C183.213 25.8918 182.492 24.5892 181.984 23.0261C181.49 21.4629 181.242 19.6059 181.242 17.4549V12.5651C181.242 10.4409 181.49 8.59051 181.984 7.01403C182.478 5.43754 183.186 4.12826 184.108 3.08617C185.03 2.04409 186.126 1.26921 187.395 0.761523C188.664 0.253841 190.094 0 191.683 0C193.941 0 195.798 0.380762 197.255 1.14228C198.711 1.90381 199.806 3.01269 200.541 4.46894C201.276 5.92518 201.69 7.88911 201.784 10H195.671C195.591 8.82432 195.404 7.71543 195.11 7.03407C194.83 6.35271 194.422 5.86506 193.888 5.57114C193.367 5.27722 192.692 5.13026 191.864 5.13026C191.169 5.13026 190.554 5.26386 190.02 5.53106C189.499 5.7849 189.058 6.20574 188.697 6.79359C188.35 7.36807 188.09 8.12959 187.916 9.07816C187.742 10.0134 187.655 11.1623 187.655 12.5251V17.4549C187.655 18.8176 187.742 19.9733 187.916 20.9218C188.103 21.857 188.383 22.6186 188.758 23.2064C189.145 23.7809 189.639 24.2017 190.24 24.4689C190.855 24.7228 191.583 24.8497 192.425 24.8497C193.039 24.8497 193.534 24.7829 193.908 24.6493C194.295 24.5157 194.609 24.3621 194.85 24.1884C195.104 24.0147 195.304 23.8945 195.451 23.8277V19H191.623V14.3707H201.804Z" fill="white"/>
<path d="M177.255 0.420841V29.5992H171.022L162.766 11.4429V29.5992H156.553V0.420841H162.786L171.062 18.6774V0.420841H177.255Z" fill="white"/>
<path d="M151.904 0.420841V29.5992H145.551V0.420841H151.904Z" fill="white"/>
<path d="M116.854 0.420841H122.204L127.495 20.501L132.766 0.420841H137.796L129.719 29.5992H125.25L116.854 0.420841ZM114.108 0.420841H119.459L120.381 21.1623V29.5992H114.108V0.420841ZM135.511 0.420841H140.862V29.5992H134.609V21.1623L135.511 0.420841Z" fill="white"/>
<path d="M100.22 6.09218L94.3687 29.5992H87.5751L96.6533 0.420841H100.882L100.22 6.09218ZM104.83 29.5992L98.9579 6.09218L98.1964 0.420841H102.505L111.623 29.5992H104.83ZM105.05 18.7174V23.8677H92.1242V18.7174H105.05Z" fill="white"/>
<path d="M85.4509 14.3707V26.2525C85.0234 26.6934 84.3888 27.2077 83.5471 27.7956C82.7188 28.3834 81.65 28.8978 80.3407 29.3387C79.0447 29.7796 77.4883 30 75.6713 30C74.028 30 72.5384 29.7462 71.2024 29.2385C69.8798 28.7308 68.7441 27.9626 67.7956 26.9339C66.8604 25.8918 66.1389 24.5892 65.6313 23.0261C65.1369 21.4629 64.8898 19.6059 64.8898 17.4549V12.5651C64.8898 10.4409 65.1369 8.59051 65.6313 7.01403C66.1256 5.43754 66.8337 4.12826 67.7555 3.08617C68.6773 2.04409 69.7729 1.26921 71.0421 0.761523C72.3113 0.253841 73.7408 0 75.3307 0C77.5885 0 79.4455 0.380762 80.9018 1.14228C82.358 1.90381 83.4536 3.01269 84.1884 4.46894C84.9232 5.92518 85.3574 7.88911 85.4509 10H79.3387C79.2585 8.82432 79.0514 7.71543 78.7575 7.03407C78.4769 6.35271 78.0695 5.86506 77.5351 5.57114C77.014 5.27722 76.3393 5.13026 75.511 5.13026C74.8163 5.13026 74.2017 5.26386 73.6673 5.53106C73.1463 5.7849 72.7054 6.20574 72.3447 6.79359C71.9973 7.36807 71.7368 8.12959 71.5631 9.07816C71.3894 10.0134 71.3026 11.1623 71.3026 12.5251V17.4549C71.3026 18.8176 71.3894 19.9733 71.5631 20.9218C71.7502 21.857 72.0307 22.6186 72.4048 23.2064C72.7922 23.7809 73.2866 24.2017 73.8878 24.4689C74.5023 24.7228 75.2305 24.8497 76.0721 24.8497C76.6867 24.8497 77.181 24.7829 77.5551 24.6493C77.9425 24.5157 78.2565 24.3621 78.497 24.1884C78.7508 24.0147 78.9512 23.8945 79.0982 23.8277V19H75.2705V14.3707H85.4509Z" fill="white"/>
<path d="M48.4569 0.420841L52.2044 10.1202L55.8116 0.420841H62.9459L56.1523 14.8697L63.0862 29.5992H55.7715L52.0441 19.6994L48.2966 29.5992H41.0421L48.0561 14.8096L41.2024 0.420841H48.4569Z" fill="url(#paint0_linear_8_132)"/>
<path d="M32.1443 0.420841H38.517V20.3607C38.517 22.6186 38.1029 24.4623 37.2745 25.8918C36.4596 27.3079 35.324 28.35 33.8677 29.018C32.4115 29.6727 30.7214 30 28.7976 30C26.8604 30 25.157 29.6727 23.6874 29.018C22.2178 28.35 21.0688 27.3079 20.2405 25.8918C19.4255 24.4623 19.018 22.6186 19.018 20.3607V0.420841H25.4108V20.3607C25.4108 21.6032 25.5377 22.5518 25.7916 23.2064C26.0454 23.8477 26.4195 24.2819 26.9138 24.509C27.4215 24.7361 28.0494 24.8497 28.7976 24.8497C29.5591 24.8497 30.1804 24.7361 30.6613 24.509C31.1556 24.2819 31.523 23.8477 31.7635 23.2064C32.0174 22.5518 32.1443 21.6032 32.1443 20.3607V0.420841Z" fill="url(#paint1_linear_8_132)"/>
<path d="M16.4729 24.4489V29.5992H4.26854V24.4489H16.4729ZM6.37275 0.420841V29.5992H0V0.420841H6.37275Z" fill="url(#paint2_linear_8_132)"/>
<defs>
<linearGradient id="paint0_linear_8_132" x1="52.0908" y1="0.420841" x2="63.3217" y2="25.4984" gradientUnits="userSpaceOnUse">
<stop stop-color="#F0DB4F"/>
<stop offset="1" stop-color="#F89F09"/>
</linearGradient>
<linearGradient id="paint1_linear_8_132" x1="28.7911" y1="0.420841" x2="41.1899" y2="24.5779" gradientUnits="userSpaceOnUse">
<stop stop-color="#F0DB4F"/>
<stop offset="1" stop-color="#F89F09"/>
</linearGradient>
<linearGradient id="paint2_linear_8_132" x1="8.25642" y1="0.420841" x2="21.5318" y2="22.5721" gradientUnits="userSpaceOnUse">
<stop stop-color="#F0DB4F"/>
<stop offset="1" stop-color="#F89F09"/>
</linearGradient>
</defs>
</svg>
