<svg width="300" height="95" viewBox="0 0 300 95" fill="none" xmlns="http://www.w3.org/2000/svg">
<path d="M32.1984 56.8889C32.1984 56.8889 32.3878 56.943 32.469 56.9701C33.3351 57.2678 34.0387 57.8091 34.6071 58.4857C35.4461 59.4871 36.3121 60.5155 37.1511 61.4898C37.3947 61.7875 37.6653 62.0852 37.9901 62.3288C39.6952 63.5738 41.1837 65.0082 42.5369 66.6049C42.6722 66.7673 42.8076 66.8756 43.0241 67.0921C43.5112 65.8471 43.836 64.6834 44.0525 63.4655C44.269 62.2476 44.4585 61.0027 44.675 59.7036C45.2975 60.4343 45.1351 61.2733 45.4328 62.0311C46.1906 59.6494 46.1365 57.1595 46.2988 54.6967C46.2447 54.6967 46.2176 54.6967 46.2176 54.7508C46.1635 54.805 46.1365 54.8591 46.1094 54.9403C45.3787 56.6453 44.0254 57.6738 42.2392 58.1609C40.453 58.6481 38.6397 58.8105 36.7993 58.4857C34.8507 58.1339 33.2809 57.2137 32.2254 55.5628C32.0089 55.2109 31.8195 54.8591 31.603 54.4802C31.5218 54.3719 31.4135 54.2637 31.2511 54.0472C31.0887 54.9403 31.4676 55.6169 31.63 56.4017C31.2241 56.0228 31.1429 55.9958 30.9805 55.5628C30.7369 54.8862 30.4663 54.2366 30.2768 53.56C29.952 52.4233 29.6814 51.2595 29.3837 50.1229C29.3025 49.771 29.1942 49.4733 28.8695 49.2839C27.8951 48.7696 26.8126 49.2027 26.5419 50.2582C26.2172 51.5031 25.8924 52.721 25.5406 53.9389C25.3782 54.4802 25.1346 54.9944 24.891 55.5086C24.8098 55.6981 24.7016 55.9146 24.3768 55.9958C24.458 55.671 24.5392 55.4004 24.5933 55.1027C24.6474 54.805 24.7828 54.5073 24.5392 54.1284C24.3768 54.3719 24.2956 54.5614 24.1603 54.7238C24.0791 54.9132 23.9438 55.1027 23.8626 55.238C22.78 56.9972 21.2103 58.0797 19.0993 58.4316C17.3942 58.7022 15.7162 58.5398 14.0653 58.215C11.9543 57.755 10.4658 56.6183 9.78917 54.5614C9.78917 54.4802 9.70797 54.4261 9.68091 54.3449C9.87036 56.9701 9.87036 59.6224 10.6823 62.1664C10.8717 61.3274 10.6823 60.4614 11.3318 59.6494C11.5483 61.0027 11.7378 62.2205 11.9814 63.4384C12.2249 64.6563 12.5768 65.8471 13.091 67.0921C13.2805 66.8756 13.4158 66.7673 13.524 66.632C14.8231 65.0082 16.2846 63.5467 17.9626 62.2747C18.2061 62.0852 18.4497 61.8416 18.6392 61.5981C19.5052 60.5967 20.3713 59.5683 21.2644 58.5398C21.6162 58.1609 21.9951 57.8361 22.4011 57.5384C22.78 57.2678 23.1589 57.0242 23.6731 56.916C23.5919 57.2407 23.3213 57.2949 23.1589 57.4302C22.374 58.1068 21.941 58.8646 22.1034 59.9201C22.1575 60.299 22.2928 60.6238 22.6717 60.7591C22.7529 60.705 22.8071 60.6779 22.8612 60.6238C23.7002 59.7848 24.891 59.7306 25.7841 60.5426C25.9195 60.6508 26.0818 60.7591 26.2172 60.8944C26.0277 60.4614 25.6488 60.1907 25.5676 59.6224C25.8112 59.8389 25.9736 60.0013 26.163 60.1366C26.9479 60.7591 27.814 60.8673 28.7341 60.4614C29.2754 60.2178 29.7085 59.8389 30.0603 59.3788C30.1685 59.2435 30.2768 59.1623 30.4663 58.9728C30.5474 59.3788 30.6016 59.6765 30.6828 59.9742C31.1699 59.9742 31.603 59.9201 31.9819 60.0554C32.3608 60.1907 32.7126 60.4884 33.1456 60.732C33.6328 60.4614 33.6869 59.9471 33.714 59.4329C33.714 58.215 33.0915 57.4302 32.036 56.8618C32.1172 56.943 32.1442 56.943 32.1984 56.943V56.8889Z" fill="white"/>
<path d="M47.6259 74.1282C46.5433 77.5924 44.7029 80.6777 42.4837 83.5465C42.3754 83.7089 42.213 83.8172 42.0777 83.9525C42.0236 83.9525 41.9965 83.9525 41.9153 83.8983C42.1589 82.5181 42.2942 81.1107 42.1589 79.5951C41.9965 79.8928 41.9153 80.0823 41.8071 80.2447C41.4282 81.0566 41.0222 81.8415 40.6162 82.6534C39.3713 84.9809 37.8557 87.146 36.0424 89.0947C35.8259 89.3382 35.6364 89.636 35.1493 89.7713C35.3116 88.9593 35.447 88.2286 35.5823 87.4979C35.7176 86.7942 35.8259 86.0635 35.9612 85.3598C34.3644 87.985 32.8759 89.7983 31.7933 90.2584C31.9015 89.2029 32.1722 88.1745 31.9286 87.0107C31.7392 87.3084 31.6309 87.4979 31.5497 87.6873C30.7378 89.2571 29.7093 90.7185 28.5997 92.0988C28.4373 92.3153 28.2208 92.4777 28.0043 92.7483C27.5983 92.2612 27.2194 91.8552 26.8676 91.4222C26.5158 90.9892 26.191 90.5561 25.8933 90.096C25.5685 89.6089 25.2708 89.1217 24.9731 88.6616C24.6754 88.2015 24.5401 87.6873 24.08 87.2272C23.7823 88.3369 24.1612 89.3112 24.1612 90.3396C24.0529 90.3396 23.9447 90.3396 23.9176 90.2584C23.7281 90.1231 23.5387 89.9878 23.4034 89.8254C22.1584 88.6616 21.157 87.3355 20.3992 85.8199C20.3181 85.6575 20.2098 85.4951 20.1286 85.3328C20.1286 85.3328 20.0474 85.3327 20.0474 85.3869C20.291 86.7942 20.5616 88.1745 20.8323 89.5818C20.7511 89.5818 20.6969 89.636 20.6158 89.663C20.3992 89.4465 20.1286 89.1759 19.9121 88.9323C17.6387 86.4424 15.8795 83.6277 14.4722 80.5965C14.3639 80.3529 14.2827 80.0552 13.958 79.7575V81.9227C13.958 82.5993 14.2015 83.3029 14.0933 84.1149C13.8768 83.8713 13.6873 83.736 13.5791 83.5465C12.9295 82.6805 12.28 81.8144 11.7116 80.9213C10.2501 78.675 8.97813 76.3474 8.27446 73.7763C8.05794 73.0727 7.43547 72.9644 6.81299 72.6396C6.86712 73.3163 6.89418 73.8575 6.94831 74.3988C7.08363 75.752 7.38134 77.0511 8.05794 78.2419C8.13914 78.3773 8.24739 78.4855 8.38272 78.675C8.59923 78.1337 8.43684 77.5653 8.86987 77.0782C9.00519 77.43 9.11345 77.7006 9.22171 77.9713C9.79006 79.541 10.4667 81.0566 11.3598 82.491C12.1988 83.7901 13.0919 85.035 14.3098 86.0094C14.5263 86.1988 14.7157 86.4153 15.1217 86.4694C15.1217 85.7116 14.824 85.035 15.0405 84.3043C15.3382 84.3855 15.3924 84.6561 15.5277 84.8185C16.2043 85.7928 16.7997 86.7671 17.5034 87.7415C18.3694 88.9323 19.3708 90.0149 20.4804 90.9892C20.8864 91.3681 21.3194 91.6658 21.9148 91.9635C21.9148 91.1786 21.5901 90.5291 21.7525 89.7172C21.969 89.9607 22.1314 90.1231 22.2667 90.2855C23.0515 91.1786 23.8905 92.0176 24.8648 92.6942C25.0002 92.7754 25.1625 92.8566 25.4061 92.9648C25.352 92.4777 25.3249 92.1259 25.3249 91.747C25.3791 91.747 25.4061 91.6928 25.4603 91.6658C26.3263 92.6671 27.1112 93.7768 28.1667 94.7511C28.5456 94.3451 28.8433 93.9933 29.141 93.6144C29.4387 93.2626 29.7093 92.9107 30.007 92.5318C30.3048 92.1529 30.5213 91.7199 30.9814 91.3951C31.0896 91.9905 30.846 92.4506 30.9814 93.0731C31.658 92.4777 32.2534 91.9635 32.8488 91.4222C33.3901 90.8809 33.9043 90.2855 34.4997 89.663C34.6621 90.4749 34.2832 91.1786 34.3915 91.9635C34.635 91.8011 34.8786 91.7199 35.041 91.5575C35.7447 90.9621 36.4754 90.3938 37.1249 89.7172C38.5594 88.2557 39.7502 86.5777 40.8057 84.8185C40.9139 84.602 40.9681 84.3314 41.2928 84.2772C41.4552 85.008 41.2387 85.7116 41.2117 86.4424C41.5905 86.3883 41.8341 86.1447 42.0506 85.9282C43.2956 84.8997 44.2158 83.6006 45.0548 82.2474C45.8938 80.8672 46.4892 79.3786 47.0305 77.863C47.1117 77.5924 47.1928 77.2676 47.5176 76.9158C47.6259 77.5112 47.7341 78.0254 47.8424 78.5396C48.8167 77.3218 49.6016 73.8034 49.1956 72.7479C48.4378 73.0456 47.9777 73.4245 47.7612 74.1823L47.6259 74.1282Z" fill="white"/>
<path d="M43.3485 70.2586C42.9426 70.0421 42.6449 69.7715 42.3742 69.4196C41.454 68.0394 40.4797 66.7132 39.316 65.4953C37.8545 63.9527 36.2306 62.6265 34.0655 62.1123C34.0655 62.0582 34.1196 62.0041 34.1467 62.0041C34.6068 61.9499 35.0398 61.9229 35.6352 61.8417C35.3917 61.7334 35.2563 61.6252 35.121 61.5981C33.7407 61.1651 31.6568 61.7064 30.7366 62.7889C30.4389 63.1408 30.2224 63.5738 30.0871 63.9797C29.8705 64.6834 30.1683 65.2247 30.8178 65.5495C31.0343 65.6577 31.2779 65.766 31.5215 65.8472C32.8205 66.2802 34.3091 67.0651 35.3105 68.0123C36.2306 68.9325 36.9073 70.0692 37.8274 70.9623C39.5866 72.6944 41.6976 73.4522 44.2146 72.965C44.6476 72.8839 45.0807 72.8027 45.6219 72.7215C45.4596 72.9651 45.3513 73.1274 45.243 73.2898C46.8398 73.2898 48.9779 72.3155 49.844 71.0976C49.6274 71.0976 49.4651 71.0976 49.3297 71.0976C47.2187 71.4765 45.1889 71.2059 43.3215 70.2316L43.3485 70.2586Z" fill="white"/>
<path d="M10.3584 72.7753C10.7373 72.8565 10.9809 72.8836 11.2245 72.9377C12.3341 73.1542 13.4437 73.2895 14.5804 73.046C16.069 72.7483 17.2869 72.0175 18.2612 70.9349C18.9107 70.2583 19.4791 69.5006 20.0745 68.7698C21.1029 67.4978 22.402 66.4694 23.9988 65.9822C24.3236 65.901 24.6213 65.7657 24.919 65.6304C25.7039 65.2785 25.9745 64.7373 25.758 63.8983C25.5685 63.1675 25.1626 62.6262 24.513 62.2203C23.7282 61.7061 22.8621 61.4625 21.9149 61.4354C21.3736 61.4354 20.8052 61.5166 20.2369 61.8414C20.8052 61.9767 21.3465 61.7602 21.9149 62.112C20.3722 62.3285 19.2355 63.0863 18.2071 63.9253C17.3951 64.6019 16.6373 65.3327 15.9878 66.0905C15.1217 67.146 14.3639 68.2556 13.5791 69.3652C13.3355 69.7171 13.0648 69.9877 12.6589 70.2042C10.7644 71.1785 8.76163 71.4762 6.65062 71.1244C6.43411 71.1244 6.27172 71.0703 5.89282 71.0432C7.32723 72.3694 8.81576 73.1813 10.7103 73.3437C10.6291 73.1542 10.5208 73.0189 10.3314 72.7483L10.3584 72.7753Z" fill="white"/>
<path d="M32.3328 69.9066C31.9539 69.9878 31.6021 70.0419 31.2502 70.1772C30.8984 70.3125 30.8713 70.4478 31.0608 70.7456C31.6021 71.6387 32.847 72.207 33.9025 72.0176C34.5521 71.9093 35.0122 71.5304 35.2016 70.9079C35.3369 70.4478 35.2828 70.2584 34.9039 69.9607C34.2814 69.4735 33.6319 69.0134 33.0094 68.5263C32.414 68.0662 31.7103 67.8226 30.9525 67.7144C29.1663 67.4437 27.353 67.4979 25.5397 67.6332C24.5654 67.7144 23.6452 67.9309 22.8603 68.5534C22.2649 69.0134 21.6695 69.4465 21.0741 69.9066C20.641 70.2584 20.5599 70.5561 20.7493 71.0433C20.9658 71.5575 21.3177 71.8823 21.8589 72.0176C23.0498 72.3965 24.5654 71.6116 24.9713 70.4208C24.403 69.9066 23.6452 70.0148 22.8333 69.8795C23.0498 69.7442 23.131 69.663 23.2392 69.5818C24.0241 69.23 24.8089 69.1758 25.6479 69.3923C27.1906 69.7983 28.7062 69.7712 30.2218 69.3923C30.4383 69.3382 30.6278 69.3112 30.8443 69.2841C31.575 69.23 32.2787 69.3923 32.8741 69.7712C32.8741 69.8254 32.8741 69.8795 32.8741 69.9336C32.6846 69.8795 32.4952 69.8795 32.3328 69.9336V69.9066Z" fill="white"/>
<path d="M47.2993 58.6743C47.3805 61.3536 48.2466 63.7894 49.8975 66.1169C49.0585 65.9816 48.5984 65.4403 47.8947 65.0073C48.003 65.7922 48.1112 66.4146 48.1654 67.0371C48.2466 67.6596 48.3007 68.255 48.3819 68.8775C48.4631 69.5 48.3278 70.1495 48.4901 70.7449C49.1668 70.6637 49.2209 70.6366 49.1397 70.0683C48.9773 69.094 48.7608 68.0926 48.5984 67.1183C48.5443 66.9288 48.436 66.7394 48.5984 66.55C50.1411 67.416 50.953 67.4701 51.9544 66.7394C48.9232 63.2752 47.9218 59.1344 47.6782 54.7229C47.3534 56.0761 47.2993 57.3752 47.2993 58.7013V58.6743Z" fill="white"/>
<path d="M7.40752 67.3087C7.191 68.283 7.00155 69.2573 6.8121 70.2316C6.73091 70.5834 6.8933 70.7187 7.191 70.7458C7.51577 70.7458 7.48871 70.5293 7.48871 70.3128C7.48871 68.7972 7.75935 67.3357 8.00293 65.8472C8.05706 65.6307 8.00293 65.4142 8.05706 65.0894C7.67816 65.333 7.43458 65.5224 7.191 65.7119C6.94742 65.8743 6.67678 66.0908 6.18962 66.0908C6.94742 64.927 7.59697 63.8174 7.97587 62.5995C8.35476 61.3816 8.59834 60.1096 8.65247 58.8376C8.7066 57.5656 8.57128 56.3206 8.27357 55.0486C8.13825 59.3789 6.97449 63.3844 4.07861 66.8215C4.6199 67.2545 5.21531 67.3899 5.83779 67.2816C6.40614 67.1733 6.94742 66.9027 7.5699 66.6591C7.48871 66.9027 7.46164 67.1192 7.40752 67.3357V67.3087Z" fill="white"/>
<path d="M7.70551 52.4238C7.7867 52.0449 7.89496 51.6118 8.35505 51.4495C8.13854 50.3669 7.75964 49.6362 7.19129 49.1219C6.75826 48.716 6.62294 48.743 6.2711 49.2302C5.8922 49.8256 5.70275 50.4751 5.5945 51.1518C5.5945 51.2871 5.5133 51.4224 5.45918 51.5577C4.89083 50.4751 4.72844 49.3926 4.94495 48.2288C5.05321 47.6334 5.62156 47.444 6.13578 47.7958C6.3523 47.9311 6.54174 48.1476 6.86652 48.4183C6.78532 47.6605 6.75826 47.038 6.70413 46.4155C6.70413 46.199 6.51468 46.1449 6.32523 46.0908C5.67569 46.0096 5.10734 46.3073 4.78257 46.9297C4.51193 47.471 4.4578 48.0664 4.53899 48.6618C4.62018 49.4738 4.7555 50.2316 4.86376 51.0164C5.08028 52.4508 5.32385 53.9123 5.54037 55.3196C5.75688 56.6728 6.00046 58.0261 6.54175 59.2981C6.65 59.5687 6.75826 59.8935 7.08303 60.1641C7.19129 59.7311 7.29954 59.3522 7.38074 59.0004C7.51606 58.5132 7.46193 58.0531 7.24542 57.6201C6.54175 56.2669 6.24404 54.8054 6.00046 53.3169C5.86514 52.4779 5.78395 51.6389 6.00046 50.7999C6.08165 50.394 6.18991 49.8797 6.70413 49.7985C7.19129 49.7174 7.43487 50.1504 7.70551 50.4481C7.94909 50.7187 7.97615 50.9894 7.84083 51.3953C7.54312 52.1261 7.29954 52.9109 7.08303 53.6687C6.83945 54.5889 7.0289 55.4008 7.67844 56.1586C7.84083 55.888 7.67844 55.6985 7.59725 55.5362C7.24542 55.049 7.21835 54.5348 7.38074 53.9664C7.54312 53.4522 7.59725 52.9109 7.75964 52.3967L7.70551 52.4238Z" fill="white"/>
<path d="M49.0331 60.2726C49.1955 59.9749 49.3038 59.7855 49.412 59.596C49.9262 58.4864 50.2239 57.3226 50.3863 56.1047C50.6299 54.3456 50.9005 52.5864 51.1982 50.8272C51.3065 50.1506 51.4148 49.4199 51.496 48.7433C51.5771 48.1208 51.5501 47.4983 51.2524 46.93C50.9547 46.3075 50.4134 46.0098 49.7909 46.091C49.5744 46.091 49.412 46.1722 49.3849 46.3887C49.3038 47.0382 49.2767 47.6607 49.2226 48.4185C49.5203 48.1749 49.7368 47.9855 49.9533 47.8502C50.5216 47.4713 51.0359 47.7148 51.1712 48.3644C51.1712 48.4456 51.2253 48.5538 51.1712 48.635C51.09 49.447 50.9817 50.2589 50.9005 51.0708C50.9005 51.2332 50.7652 51.3956 50.6299 51.6662C50.5487 51.2873 50.4675 51.0979 50.4134 50.8814C50.2781 50.2859 50.1157 49.6905 49.7368 49.1492C49.4661 48.7703 49.2226 48.7433 48.8978 49.0681C48.2212 49.7447 47.7881 50.5295 47.4634 51.4497C47.9776 51.6662 48.0047 51.6392 48.14 52.0992C48.3294 52.7488 48.4648 53.3713 48.6542 54.0208C48.7895 54.535 48.7895 55.0492 48.4648 55.5364C48.3565 55.6988 48.2482 55.8882 48.4106 56.1589C48.8978 55.4011 49.1955 54.6703 48.9249 53.8314C48.6813 53.0465 48.4377 52.2616 48.14 51.5038C47.9505 51.0708 48.0588 50.7731 48.3294 50.4754C48.4377 50.3671 48.546 50.2318 48.6813 50.1236C49.1684 49.7176 49.6015 49.7717 49.845 50.3671C50.0074 50.7731 50.1427 51.2332 50.1427 51.6933C50.1427 53.696 49.818 55.6447 48.8978 57.458C48.3836 58.4052 48.6271 59.2442 48.979 60.2726H49.0331Z" fill="white"/>
<path d="M37.0983 9.71659C38.8304 9.39182 40.7791 9.63539 41.618 11.3675C41.618 11.3675 41.618 11.4216 41.618 11.4487C42.2947 12.9914 42.1864 14.8317 42.2405 16.4826C42.2405 17.6193 42.2947 18.729 42.5382 19.8386C44.2162 17.6193 44.8387 14.5069 45.0011 12.5583C45.4341 15.6707 44.6492 18.4313 43.0795 21.0024C46.6249 18.4313 48.5194 12.4501 44.7575 9.31062C44.8387 10.0684 44.6222 10.8533 44.0809 11.3946C43.8644 7.82209 39.8589 5.41338 37.0713 7.7409C38.4786 7.49732 40.9144 7.22668 41.7263 9.06705C39.6424 7.79503 35.9346 8.47163 34.9873 10.3661C34.9873 10.312 35.3662 10.2308 35.4203 10.2037C35.9346 9.98723 36.53 9.82484 37.1254 9.71659H37.0983Z" fill="#FF3300"/>
<path d="M47.111 28.1495C45.0812 28.745 41.1839 26.2009 42.6724 24.0087C43.4844 22.7908 45.1353 22.3578 46.3532 23.0615C45.5412 21.0317 48.9784 20.9234 48.383 23.0073C49.9257 17.6757 42.8348 20.6257 41.9146 23.5486C40.4261 28.339 47.2463 30.9642 50.4128 27.2564C50.2775 27.3917 49.7633 27.6624 49.4114 27.7706C49.8445 26.4986 50.8458 25.4431 51.1977 24.0899C52.4968 20.9775 52.3885 15.9707 48.6266 14.7257C52.605 17.784 51.6578 26.2009 47.0568 28.1225L47.111 28.1495Z" fill="#FF3300"/>
<path d="M54.6893 16.9709C54.6893 13.7503 52.0099 11.1521 48.8975 12.9925C50.2778 12.9925 52.064 12.776 52.7948 14.1833C51.1438 13.2631 48.3292 13.4797 47.2466 14.8599C47.7337 14.8599 48.1668 14.481 48.681 14.6975C48.681 14.6975 48.681 14.6975 48.7351 14.6975C49.3847 14.3186 50.0613 14.454 50.7108 14.5622C54.6351 15.2118 52.5782 19.8668 53.0113 22.492C53.8503 21.4095 54.148 18.3512 55.1493 17.9723C55.3659 19.7315 54.4186 21.0847 53.9585 22.7085C55.7718 21.0306 57.0168 17.8099 55.3117 15.8613C55.1223 16.1861 55.2035 16.6462 54.7975 16.9439L54.6893 16.9709Z" fill="#FF3300"/>
<path d="M54.2827 24.2489C53.3896 23.6535 52.0364 24.4113 51.4951 25.3044C52.4965 24.8713 54.4993 24.9525 53.8226 26.7117C54.9323 26.3869 55.1759 24.8443 54.3098 24.2489H54.2827Z" fill="#FF3300"/>
<path d="M12.9294 20.9751C11.3596 18.3769 10.5748 15.6434 11.0078 12.504C11.1702 14.4255 11.7927 17.5379 13.4707 19.7842C13.7413 18.7017 13.7413 17.565 13.7684 16.4283C13.8225 14.8044 13.7142 12.9641 14.3908 11.4214C14.3908 11.4214 14.3908 11.3673 14.3908 11.3402C15.2028 9.6081 17.1514 9.36452 18.9106 9.68929C19.506 9.79755 20.0743 9.95993 20.5886 10.1764C20.6697 10.1764 20.9945 10.2847 21.0216 10.3388C20.0473 8.41727 16.3665 7.74067 14.2826 9.03975C15.0945 7.17232 17.5303 7.47003 18.9376 7.7136C16.15 5.38608 12.1445 7.76773 11.9551 11.3673C11.4138 10.826 11.1973 10.0411 11.2785 9.28333C7.54358 12.4228 9.41102 18.3769 12.9564 20.9751H12.9294Z" fill="#FF3300"/>
<path d="M4.75437 24.0867C5.13327 25.4128 6.13465 26.4954 6.54061 27.7674C6.16171 27.6862 5.70162 27.3885 5.53924 27.2532C8.73282 30.9339 15.5259 28.3357 14.0374 23.5454C13.1172 20.5954 6.05346 17.6454 7.56905 23.0041C6.97364 20.9201 10.4108 21.0555 9.59887 23.0582C10.8168 22.3275 12.4947 22.7876 13.2796 24.0055C14.7681 26.1977 10.898 28.7417 8.84107 28.1463C4.26722 26.2247 3.31997 17.8078 7.27135 14.7495C3.50942 16.0215 3.42822 20.9743 4.72731 24.1137L4.75437 24.0867Z" fill="#FF3300"/>
<path d="M0.912178 18.0232C1.88649 18.4021 2.1842 21.4603 3.05025 22.5429C3.45622 19.9177 1.4264 15.2626 5.35072 14.6131C6.00026 14.5048 6.67686 14.3695 7.32641 14.7214C7.32641 14.7214 7.32641 14.7214 7.38053 14.7214C7.89476 14.5048 8.32778 14.8567 8.81494 14.8837C7.73237 13.4493 4.91769 13.2869 3.26677 14.2071C3.9975 12.7727 5.78374 13.0163 7.16402 13.0163C4.05163 11.1759 1.37227 13.7741 1.37227 16.9947C0.966307 16.697 1.02044 16.2369 0.803921 15.9392C-0.901127 17.8879 0.370893 21.1085 2.15713 22.7865C1.75117 21.1356 0.803921 19.7824 1.02044 18.0232H0.912178Z" fill="#FF3300"/>
<path d="M1.7517 24.2507C0.885646 24.792 1.12922 26.3888 2.23886 26.7135C1.56225 24.9814 3.56501 24.8732 4.56638 25.3062C4.0251 24.4131 2.67189 23.6823 1.77877 24.2507H1.7517Z" fill="#FF3300"/>
<path d="M5.86377 32.0171L6.08028 33.2891C8.97616 31.8547 16.1211 29.0671 27.7858 29.0671C36.5546 29.0671 43.7808 31.2052 47.7592 32.6666C48.4088 32.8831 49.0312 33.0997 49.6537 33.3432L49.9514 31.7735C36.2028 26.09 19.423 25.7923 5.86377 31.99V32.0171Z" fill="#FF3300"/>
<path d="M48.3297 40.6492C44.8655 39.269 37.1522 36.6979 27.815 36.6979C17.3682 36.6979 10.6021 39.0525 7.48975 40.4598L7.70626 41.8942C20.3182 36.752 35.4471 36.6708 48.1132 41.813L48.3297 40.6763V40.6492Z" fill="#FF3300"/>
<path d="M27.8143 35.0494C37.2597 35.0494 44.946 37.5123 48.6267 38.9737L49.3304 35.1306C46.5969 33.9669 38.2341 30.7462 27.7873 30.7462C15.906 30.7462 8.78815 33.8045 6.40649 35.0224L7.11016 38.8113C10.4932 37.3228 17.3405 35.0765 27.7873 35.0765L27.8143 35.0494Z" fill="#FF3300"/>
<path d="M25.6233 8.22828L25.921 9.06727H30.0889C30.0889 9.06727 30.2242 8.71544 30.3866 8.22828C29.71 8.03883 28.9251 7.95764 28.0049 7.95764C27.0848 7.95764 26.2728 8.0659 25.6233 8.22828Z" fill="#FF3300"/>
<path d="M30.8454 7.06294C30.1147 6.81937 29.1404 6.65698 28.0307 6.65698C26.9211 6.65698 25.9468 6.81937 25.2161 7.06294L25.5138 7.84781C26.2445 7.63129 27.1106 7.5501 28.0307 7.5501C28.9509 7.5501 29.844 7.65836 30.5477 7.84781C30.6289 7.60423 30.7372 7.33359 30.8454 7.06294Z" fill="#FF3300"/>
<path d="M22.3742 4.24908C22.3742 4.24908 22.9426 4.7633 23.1591 5.03394C24.2146 4.54678 25.7843 4.51972 25.7843 4.51972L26.1903 5.4399C26.1903 5.4399 25.216 5.52109 24.7559 5.92706L25.0265 6.68485C25.8385 6.41421 26.8669 6.25183 27.9765 6.25183C29.0862 6.25183 30.1417 6.41421 30.9265 6.68485C31.0889 6.25183 31.1972 5.92706 31.1972 5.92706C30.71 5.54816 29.7628 5.4399 29.7628 5.4399L30.1687 4.51972C30.1687 4.51972 31.7385 4.51972 32.794 5.03394C33.0105 4.79036 33.5788 4.24908 33.5788 4.24908C33.5788 4.24908 32.9834 3.6266 32.794 3.30183C32.0091 3.49128 30.6559 3.51834 30.6559 3.51834L32.9834 0H30.683C31.2784 1.19082 30.3041 3.51834 30.3041 3.51834H28.4366C28.4366 3.51834 28.3284 1.48853 29.2215 0H26.6504C27.5435 1.48853 27.4352 3.51834 27.4352 3.51834H25.5678C25.5678 3.51834 24.5935 1.21789 25.1889 0H22.8885L25.216 3.51834C25.216 3.51834 23.8628 3.51834 23.0779 3.30183C22.9696 3.6266 22.3472 4.24908 22.3472 4.24908H22.3742ZM28.4637 4.51972H29.871C29.7628 4.87155 29.5463 5.38577 29.5463 5.38577L28.3825 5.30458C28.3825 5.30458 28.4637 4.79036 28.4637 4.49265V4.51972ZM27.5706 4.51972C27.5706 4.79036 27.6518 5.30458 27.6518 5.30458L26.488 5.38577C26.488 5.38577 26.2715 4.87155 26.1632 4.51972C26.5963 4.51972 27.1375 4.51972 27.5976 4.51972H27.5706Z" fill="#FF3300"/>
<path d="M22.3462 26.4698C27.0013 24.873 25.5127 19.2166 25.7293 15.3735C26.4871 15.8065 27.0013 16.0501 27.8403 16.1854C27.7861 17.1868 27.1907 17.8905 26.7036 18.6483C27.0013 19.2166 27.4884 19.5143 28.0027 19.4873C28.5169 19.4873 29.004 19.2166 29.3017 18.6483C28.7875 17.9176 28.165 17.2139 28.165 16.1854C29.004 16.0501 29.5183 15.8065 30.2761 15.3735C30.4926 19.2166 29.004 24.873 33.6591 26.4698C36.6091 27.5795 40.3981 26.3345 41.5348 23.2492C41.1559 23.4657 40.8852 23.6281 40.5334 23.8446C42.2655 19.2166 41.6701 12.8295 36.7173 10.502C39.099 13.4249 39.938 17.1598 40.2086 20.8405C39.8297 18.6753 37.5293 16.2125 35.5806 18.3506C34.4439 19.6226 36.7985 21.7877 37.3128 19.7579C37.9623 18.6754 38.9637 19.6767 39.099 20.5428C40.4522 26.3075 31.2774 27.2818 31.2774 21.463C31.2774 17.5116 31.3857 14.1556 31.2774 10.2313H30.249C30.249 11.3951 30.3302 13.1543 29.0311 14.1827C29.4912 12.8565 29.8972 11.6116 29.6536 10.2855H29.0311C29.2205 11.4221 28.5169 12.8024 28.0297 13.3437C27.5155 12.8295 26.8118 11.4492 27.0283 10.2855H26.4059C26.1893 11.6387 26.5683 12.8565 27.0283 14.1827C25.7563 13.1543 25.8104 11.3951 25.8104 10.2313H24.782C24.6467 14.1556 24.782 17.5116 24.782 21.463C24.782 27.2818 15.6072 26.3075 16.9604 20.5428C17.0958 19.6767 18.1242 18.6754 18.7467 19.7579C19.2609 21.7877 21.5884 19.6226 20.4788 18.3506C18.5302 16.1854 16.2026 18.6483 15.8508 20.8405C16.1485 17.1598 16.9604 13.4249 19.3421 10.502C14.4164 12.8565 13.821 19.2166 15.526 23.8446C15.1471 23.6281 14.8765 23.4657 14.5247 23.2492C15.6614 26.3345 19.4233 27.5524 22.4004 26.4698H22.3462Z" fill="#FF3300"/>
<path d="M29.6006 23.383C28.7616 22.6523 28.3286 21.6509 28.0309 20.5684C27.7603 21.678 27.3272 22.6523 26.4612 23.356C27.1919 24.222 27.6249 24.9257 28.0309 25.9812C28.4098 24.9528 28.8428 24.2491 29.6006 23.383Z" fill="#FF3300"/>
<path d="M12.2512 44.4366C16.8792 43.8953 21.3989 44.8155 25.9457 45.4921C26.6223 45.5733 27.2448 45.5733 27.9214 45.5733C28.571 45.5733 29.2205 45.5733 29.8971 45.4921C34.471 44.8155 38.9636 43.8953 43.5916 44.4366C43.6458 43.5976 43.3751 42.6503 42.4549 42.4879C40.5875 41.9737 38.6659 41.5678 36.7444 41.3242C34.0921 40.9453 31.0609 40.6746 27.9214 40.6476C24.782 40.7017 21.7508 40.9724 19.0985 41.3242C17.1769 41.5678 15.2824 42.0008 13.3879 42.4879C12.4948 42.6503 12.2512 43.5705 12.2783 44.4366H12.2512Z" fill="white"/>
<path d="M81.9974 71.9103H81.3208L61.6992 28.7429H72.2001L81.9974 51.4768L91.9029 28.7429H101.619L81.9974 71.9103Z" fill="#FF3300"/>
<path d="M105.083 70.3399V28.7693H115.016V70.3399H105.083Z" fill="#FF3300"/>
<path d="M124.678 70.3395V28.7689H135.368C138.643 28.7689 141.268 29.0125 143.19 29.4726C145.111 29.9597 146.843 30.7446 148.332 31.8813C149.874 33.018 151.092 34.4253 151.931 36.1033C152.77 37.7813 153.203 39.5946 153.203 41.4891C153.203 45.684 151.715 49.04 148.711 51.5028C145.707 53.9657 141.647 55.2106 136.532 55.2106C135.991 55.2106 135.585 55.2106 135.314 55.2106C135.043 55.2106 134.8 55.2106 134.556 55.1565V70.3666H124.624L124.678 70.3395ZM135.963 36.374H134.61V47.4703H136.424C138.913 47.4703 140.835 46.9831 142.161 46.0088C143.487 45.0345 144.137 43.6542 144.137 41.8409C144.137 40.0276 143.487 38.5662 142.188 37.673C140.889 36.807 138.805 36.3469 135.963 36.3469V36.374Z" fill="#FF3300"/>
<path d="M159.373 70.3399V28.7693H169.17V46.8752L182.919 28.7693H194.746L179.049 48.5532L195.964 70.3399H183.974L169.17 51.1784V70.3399H159.373Z" fill="white"/>
<path d="M199.51 70.3395V28.7689H209.443V70.3395H199.51Z" fill="white"/>
<path d="M219.105 70.3398V27.416H220.053L245.953 51.6655V28.7422H255.101V71.9095H254.235L228.253 47.66V70.3398H219.105Z" fill="white"/>
<path d="M299.919 47.2555V67.4724C297.131 68.8797 294.398 69.9082 291.772 70.6389C289.12 71.3426 286.549 71.6944 284.086 71.6944C277.753 71.6944 272.503 69.6105 268.335 65.4155C264.167 61.2476 262.083 55.9701 262.083 49.61C262.083 43.25 264.194 37.8642 268.443 33.6692C272.665 29.4743 278.024 27.3633 284.519 27.3633C286.955 27.3633 289.31 27.6881 291.529 28.3647C293.748 29.0413 295.886 30.0426 297.916 31.3958L296.861 41.8156C294.939 39.8669 293.017 38.4325 291.096 37.5394C289.174 36.6192 287.172 36.1862 285.061 36.1862C281.326 36.1862 278.24 37.4312 275.805 39.9211C273.369 42.411 272.124 45.5504 272.124 49.2853C272.124 53.2366 273.315 56.4302 275.669 58.9472C278.024 61.4642 281.082 62.682 284.817 62.682C285.683 62.682 286.549 62.6008 287.415 62.4655C288.281 62.3302 289.201 62.0866 290.176 61.816V55.7536H282.3V47.3096H300L299.919 47.2555Z" fill="white"/>
</svg>
